<svg version="1.1" id="Layer_1" xmlns="http://www.w3.org/2000/svg" xmlns:xlink="http://www.w3.org/1999/xlink" x="0px" y="0px"
	 width="100%" viewBox="0 0 960 915" enable-background="new 0 0 960 915" xml:space="preserve">
<path fill="#000000" opacity="1.000000" stroke="none" 
	d="
M559.000000,1.000001 
	C692.957153,1.000000 826.914246,1.000000 961.000000,1.000000 
	C961.000000,303.693512 961.000000,606.387024 960.646118,909.704712 
	C957.415344,903.975586 954.428040,897.669678 951.683533,891.259766 
	C944.729736,875.019165 937.934265,858.710876 930.976135,842.472229 
	C927.445435,834.232605 923.700256,826.084900 920.027222,817.516357 
	C912.946167,800.424072 905.889954,783.710999 898.881409,766.718323 
	C898.903687,766.251282 898.878296,766.063904 898.874878,765.663879 
	C898.767090,765.166138 898.546082,765.010254 898.039185,764.665955 
	C891.126282,748.327698 884.462524,732.284058 877.673950,716.293396 
	C871.473022,701.686646 865.136902,687.137268 858.861572,672.171997 
	C849.284424,649.174072 839.706055,626.566895 830.061768,603.592407 
	C829.304138,601.567627 828.621094,599.906433 827.919617,598.253113 
	C817.558899,573.833740 807.195618,549.415344 796.770020,524.645020 
	C787.509705,502.848755 778.312378,481.404144 769.053345,459.586365 
	C766.640991,453.481567 764.378723,447.711639 761.919739,442.026855 
	C757.716675,432.309692 753.390259,422.645844 749.064697,412.581177 
	C743.022888,398.099884 737.032104,383.997009 731.006897,369.523224 
	C725.592834,356.433533 720.213196,343.714783 714.777893,330.644623 
	C708.499146,315.828369 702.276123,301.363495 696.015991,286.529480 
	C689.938721,271.774384 683.898621,257.388367 677.815430,242.646774 
	C673.851501,233.385590 669.901550,224.492676 666.017761,215.570908 
	C662.018250,206.382996 658.083191,197.167007 654.066528,187.581528 
	C646.355286,169.105408 638.697327,151.011032 631.009399,132.544617 
	C626.269775,120.972084 621.618408,109.746590 616.831848,98.579041 
	C613.013611,89.670609 609.030518,80.832832 605.064758,71.621117 
	C604.702148,70.491478 604.395386,69.704430 604.049683,68.588409 
	C603.566467,67.276939 603.122131,66.294434 602.450378,65.027321 
	C599.570129,58.372299 596.976807,51.976257 594.249817,45.637722 
	C590.545898,37.028446 587.375977,28.104992 582.801025,19.978331 
	C578.088257,11.606952 571.080994,5.167647 560.992798,2.612775 
	C560.221863,1.857104 559.610962,1.428553 559.000000,1.000001 
z"/>
<path fill="#000000" opacity="1.000000" stroke="none" 
	d="
M0.999994,614.000000 
	C1.000000,409.765381 1.000000,205.530777 1.000000,1.000000 
	C91.690529,1.000000 182.381378,1.000000 273.877594,1.265989 
	C268.010742,5.502344 260.138214,7.622974 255.081970,14.179527 
	C255.005386,14.157460 255.010788,14.453297 254.766464,14.716991 
	C253.981812,15.990074 253.441498,16.999460 252.943268,18.001213 
	C252.985336,17.993578 252.969757,17.909475 252.664124,18.044518 
	C251.874039,19.126020 251.389603,20.072481 250.953186,21.011427 
	C251.001190,21.003912 250.986237,20.907877 250.696411,21.037964 
	C250.253387,21.771420 250.100204,22.374784 249.640823,23.154503 
	C244.526291,34.871212 239.717957,46.411564 234.649567,58.192726 
	C231.091827,66.290939 227.726151,74.120689 224.516418,82.013847 
	C221.558609,89.287476 218.768341,96.629227 215.631287,104.160065 
	C209.206589,119.233566 203.054901,134.087982 196.622330,149.158829 
	C195.369965,151.633118 194.366653,153.877869 193.432281,156.150955 
	C188.267365,168.715988 183.119247,181.287918 177.743134,193.968491 
	C177.203781,194.284042 177.078217,194.572098 177.109924,195.213623 
	C177.105972,195.662476 177.136307,195.841339 176.999329,196.339111 
	C169.518036,214.089584 162.204056,231.521149 154.602264,249.168320 
	C152.685135,253.305130 151.053329,257.225281 149.426987,261.147675 
	C142.672470,277.438141 135.919571,293.729279 128.995575,310.347961 
	C118.531731,335.177094 108.202629,359.663544 97.966515,384.188751 
	C94.831146,391.701019 91.950844,399.319733 88.648865,407.082153 
	C87.682831,408.594025 86.939590,409.879181 86.372604,411.237823 
	C74.302330,440.162079 62.251869,469.094574 50.110359,498.390686 
	C45.106602,510.311737 40.122219,521.839294 35.295059,533.432373 
	C31.485271,542.582092 27.868933,551.812378 24.001965,561.334595 
	C17.214893,577.678162 10.620842,593.705872 3.925647,609.691284 
	C3.268326,611.260681 1.990037,612.569946 0.999994,614.000000 
z"/>
<path fill="#000000" opacity="1.000000" stroke="none" 
	d="
M702.000000,916.000000 
	C532.641724,916.000000 363.283508,916.000000 193.307770,915.700562 
	C193.160873,914.952209 193.631470,914.503174 194.528473,914.027954 
	C208.992142,912.735168 221.970154,907.669434 235.368576,902.760742 
	C250.997284,895.392761 266.269653,888.097595 281.828613,880.579712 
	C282.709290,880.089783 283.340057,879.882751 283.892212,879.546570 
	C303.444824,867.642883 322.990051,855.727234 342.805542,843.577576 
	C363.163940,830.944702 383.271393,818.577026 403.337494,806.142578 
	C427.562378,791.131104 451.732025,776.030457 475.962921,761.028809 
	C500.752075,745.681396 525.590637,730.413879 550.399658,715.098511 
	C568.233337,704.089111 586.053894,693.058533 604.043213,682.361816 
	C606.666504,688.079163 609.126831,693.472229 611.742371,699.177979 
	C612.946960,702.391724 613.867676,705.347046 615.066528,708.184937 
	C623.073120,727.137939 631.139038,746.065979 639.251709,765.348938 
	C641.393127,770.494568 643.498657,775.280640 645.538513,780.094543 
	C652.368469,796.212158 659.136047,812.356262 666.004700,828.457275 
	C670.225037,838.350464 674.586426,848.183411 678.945068,858.415161 
	C680.347534,862.106506 681.634216,865.449707 683.040955,868.741577 
	C689.063293,882.833801 695.120911,896.911011 701.242737,911.364258 
	C701.546570,913.156555 701.773315,914.578247 702.000000,916.000000 
z"/>
<path fill="#000000" opacity="1.000000" stroke="none" 
	d="
M166.000000,916.000000 
	C111.055740,916.000000 56.111481,916.000000 1.000000,916.000000 
	C1.000000,827.312500 1.000000,738.624939 1.356035,649.315796 
	C4.065650,653.522522 6.257288,658.437927 8.800375,663.164124 
	C20.904589,685.659485 33.126411,708.091492 45.263523,730.569214 
	C55.526974,749.577087 65.717651,768.624207 75.965637,787.640442 
	C93.327721,819.857666 110.540810,852.157043 128.172119,884.226440 
	C134.586182,895.892883 142.468704,906.531372 156.172241,911.419312 
	C158.660080,912.457825 160.978195,913.089417 163.192719,913.979004 
	C164.231491,914.396240 165.070511,915.310730 166.000000,916.000000 
z"/>
<path fill="#81BC45" opacity="1.000000" stroke="none" 
	d="
M0.999994,614.468628 
	C1.990037,612.569946 3.268326,611.260681 3.925647,609.691284 
	C10.620842,593.705872 17.214893,577.678162 24.301897,561.460876 
	C27.766335,563.283142 30.538465,565.832703 33.802662,567.245667 
	C55.928356,576.823181 78.164749,586.144714 100.352531,595.579102 
	C144.574173,614.382446 188.775345,633.234253 233.032959,651.952576 
	C235.851715,653.144836 239.081970,653.364258 242.057709,654.406250 
	C238.335815,663.465942 234.677017,672.155701 230.552368,680.912964 
	C217.390686,681.116638 204.694839,681.252808 191.534851,681.316406 
	C176.371979,681.295837 161.673279,681.347961 146.512268,681.333740 
	C134.691498,681.313782 123.333000,681.360168 111.512314,681.339661 
	C94.224388,681.183899 77.375832,681.609558 60.579216,680.864258 
	C43.086716,680.088257 26.736507,675.529297 13.812397,662.514832 
	C6.713034,655.365784 3.408542,646.438660 1.000000,637.000000 
	C1.000000,629.645752 1.000000,622.291504 0.999994,614.468628 
z"/>
<path fill="#394EA6" opacity="1.000000" stroke="none" 
	d="
M702.468628,916.000000 
	C701.773315,914.578247 701.546570,913.156555 701.585205,911.280518 
	C725.500977,900.909241 749.155029,891.000854 772.800903,881.073242 
	C815.795044,863.022095 858.803589,845.005005 901.754517,826.851624 
	C907.999756,824.211914 913.959900,820.897705 920.052002,817.895630 
	C923.700256,826.084900 927.445435,834.232605 930.976135,842.472229 
	C937.934265,858.710876 944.729736,875.019165 951.683533,891.259766 
	C954.428040,897.669678 957.415344,903.975586 960.646118,910.164429 
	C961.000000,911.996704 961.000000,913.993347 961.000000,915.994995 
	C874.979126,916.000000 788.958191,916.000000 702.468628,916.000000 
z"/>
<path fill="#30837E" opacity="1.000000" stroke="none" 
	d="
M1.000000,637.460632 
	C3.408542,646.438660 6.713034,655.365784 13.812397,662.514832 
	C26.736507,675.529297 43.086716,680.088257 60.579216,680.864258 
	C77.375832,681.609558 94.224388,681.183899 111.518570,681.746216 
	C112.172501,684.202698 112.183022,686.220398 112.568825,688.163574 
	C124.919601,750.370544 137.355042,812.560608 149.646378,874.779297 
	C152.028488,886.837402 153.869476,899.002380 155.960083,911.118103 
	C142.468704,906.531372 134.586182,895.892883 128.172119,884.226440 
	C110.540810,852.157043 93.327721,819.857666 75.965637,787.640442 
	C65.717651,768.624207 55.526974,749.577087 45.263523,730.569214 
	C33.126411,708.091492 20.904589,685.659485 8.800375,663.164124 
	C6.257288,658.437927 4.065650,653.522522 1.356035,648.847168 
	C1.000000,645.307068 1.000000,641.614197 1.000000,637.460632 
z"/>
<path fill="#29A3E1" opacity="1.000000" stroke="none" 
	d="
M255.158539,14.201597 
	C260.138214,7.622974 268.010742,5.502344 274.341492,1.265989 
	C368.687561,1.000000 463.375122,1.000000 558.531372,1.000001 
	C559.610962,1.428553 560.221863,1.857104 560.643555,2.707196 
	C558.568604,4.166039 556.757141,5.378885 554.785583,6.213540 
	C534.543945,14.782969 514.278381,23.296049 494.015472,31.815304 
	C454.872406,48.272465 415.749481,64.777893 376.561584,81.127625 
	C369.378540,84.124512 361.927094,86.478111 354.396240,88.857491 
	C353.471222,86.906960 352.753510,85.225822 352.027069,83.548462 
	C343.970093,64.944992 336.122284,46.247391 327.805145,27.760952 
	C314.877228,-0.973815 278.223755,-1.967618 259.325134,12.828581 
	C258.241913,13.676658 256.561188,13.761532 255.158539,14.201597 
z"/>
<path fill="#348A84" opacity="1.000000" stroke="none" 
	d="
M156.172241,911.419312 
	C153.869476,899.002380 152.028488,886.837402 149.646378,874.779297 
	C137.355042,812.560608 124.919601,750.370544 112.568825,688.163574 
	C112.183022,686.220398 112.172501,684.202698 111.980759,681.813110 
	C123.333000,681.360168 134.691498,681.313782 146.522858,681.723999 
	C147.064178,683.010010 147.051315,683.855591 147.212631,684.666504 
	C161.895859,758.486389 176.579742,832.306152 191.338165,906.111023 
	C191.882690,908.834106 193.164062,911.409790 194.102066,914.054199 
	C193.631470,914.503174 193.160873,914.952209 192.845139,915.700562 
	C184.312439,916.000000 175.624863,916.000000 166.468658,916.000000 
	C165.070511,915.310730 164.231491,914.396240 163.192719,913.979004 
	C160.978195,913.089417 158.660080,912.457825 156.172241,911.419312 
z"/>
<path fill="#3856AB" opacity="1.000000" stroke="none" 
	d="
M678.884460,858.043335 
	C674.586426,848.183411 670.225037,838.350464 666.004700,828.457275 
	C659.136047,812.356262 652.368469,796.212158 645.538513,780.094543 
	C643.498657,775.280640 641.393127,770.494568 639.591248,765.263062 
	C649.219971,760.892578 658.574097,756.952515 667.930359,753.017334 
	C709.348633,735.596802 750.773438,718.191895 792.183533,700.751953 
	C814.422058,691.386230 836.635559,681.961121 858.860291,672.562744 
	C865.136902,687.137268 871.473022,701.686646 877.673950,716.293396 
	C884.462524,732.284058 891.126282,748.327698 898.099915,764.837158 
	C898.480591,765.546143 898.646423,765.729675 898.852905,765.876526 
	C898.878296,766.063904 898.903687,766.251282 898.514709,766.752686 
	C896.840942,767.477173 895.544922,767.800415 894.327393,768.310913 
	C861.052551,782.264160 827.783569,796.231567 794.518005,810.206909 
	C764.778076,822.701233 735.063782,835.256592 705.293945,847.678894 
	C696.568420,851.319946 687.691772,854.598633 678.884460,858.043335 
z"/>
<path fill="#3664B3" opacity="1.000000" stroke="none" 
	d="
M611.587158,698.865234 
	C609.126831,693.472229 606.666504,688.079163 604.063477,682.093018 
	C603.908997,681.320435 603.897278,681.140991 603.800903,680.618042 
	C594.790710,659.214417 585.865173,638.154297 577.299011,616.999756 
	C598.227966,608.285950 618.803955,599.681946 639.365540,591.043640 
	C667.906982,579.053040 696.428406,567.014893 724.975525,555.037842 
	C748.915283,544.993835 772.879578,535.008240 796.833008,524.996704 
	C807.195618,549.415344 817.558899,573.833740 827.919617,598.253113 
	C828.621094,599.906433 829.304138,601.567627 829.910095,603.906006 
	C828.043884,605.726685 826.383728,607.151184 824.464355,607.963135 
	C800.701172,618.016174 776.899292,627.977478 753.109375,637.967407 
	C710.134216,656.013672 667.145508,674.027649 624.209229,692.165833 
	C619.838501,694.012268 615.786865,696.613953 611.587158,698.865234 
z"/>
<path fill="#2B9DDD" opacity="1.000000" stroke="none" 
	d="
M354.599518,89.128647 
	C361.927094,86.478111 369.378540,84.124512 376.561584,81.127625 
	C415.749481,64.777893 454.872406,48.272465 494.015472,31.815304 
	C514.278381,23.296049 534.543945,14.782969 554.785583,6.213540 
	C556.757141,5.378885 558.568604,4.166039 560.803589,3.034316 
	C571.080994,5.167647 578.088257,11.606952 582.801025,19.978331 
	C587.375977,28.104992 590.545898,37.028446 594.249817,45.637722 
	C596.976807,51.976257 599.570129,58.372299 602.257324,65.326141 
	C602.890625,66.912170 603.489624,67.914780 604.088562,68.917389 
	C604.395386,69.704430 604.702148,70.491478 604.663330,71.637207 
	C602.563293,72.468285 600.729614,72.750069 599.066284,73.441620 
	C573.089111,84.241913 547.115417,95.050949 521.178040,105.946266 
	C480.047394,123.223686 438.929047,140.530746 397.851196,157.933151 
	C393.284973,159.867615 388.928101,161.415665 383.941559,158.687958 
	C382.758667,156.118225 381.776245,153.847641 380.786011,151.580460 
	C374.875122,138.047272 368.962402,124.514854 363.010620,110.612587 
	C360.180481,103.204872 357.390015,96.166763 354.599518,89.128647 
z"/>
<path fill="#375EAF" opacity="1.000000" stroke="none" 
	d="
M611.742371,699.177979 
	C615.786865,696.613953 619.838501,694.012268 624.209229,692.165833 
	C667.145508,674.027649 710.134216,656.013672 753.109375,637.967407 
	C776.899292,627.977478 800.701172,618.016174 824.464355,607.963135 
	C826.383728,607.151184 828.043884,605.726685 829.976074,604.273193 
	C839.706055,626.566895 849.284424,649.174072 858.861572,672.171997 
	C836.635559,681.961121 814.422058,691.386230 792.183533,700.751953 
	C750.773438,718.191895 709.348633,735.596802 667.930359,753.017334 
	C658.574097,756.952515 649.219971,760.892578 639.525269,764.916260 
	C631.139038,746.065979 623.073120,727.137939 615.066528,708.184937 
	C613.867676,705.347046 612.946960,702.391724 611.742371,699.177979 
z"/>
<path fill="#366AB6" opacity="1.000000" stroke="none" 
	d="
M796.770020,524.645081 
	C772.879578,535.008240 748.915283,544.993835 724.975525,555.037842 
	C696.428406,567.014893 667.906982,579.053040 639.365540,591.043640 
	C618.803955,599.681946 598.227966,608.285950 576.989380,616.794312 
	C571.403015,604.824463 566.476379,592.969543 561.571167,581.105774 
	C557.423523,571.074219 553.300598,561.032471 549.533813,550.962280 
	C558.836426,547.325928 567.817871,543.832092 576.699829,540.101440 
	C631.888306,516.921326 687.041870,493.658325 742.240723,470.503235 
	C751.112061,466.781830 760.152649,463.463959 769.114990,459.959534 
	C778.312378,481.404144 787.509705,502.848755 796.770020,524.645081 
z"/>
<path fill="#2D93D5" opacity="1.000000" stroke="none" 
	d="
M384.138428,158.988663 
	C388.928101,161.415665 393.284973,159.867615 397.851196,157.933151 
	C438.929047,140.530746 480.047394,123.223686 521.178040,105.946266 
	C547.115417,95.050949 573.089111,84.241913 599.066284,73.441620 
	C600.729614,72.750069 602.563293,72.468285 604.719177,71.979797 
	C609.030518,80.832832 613.013611,89.670609 616.831848,98.579041 
	C621.618408,109.746590 626.269775,120.972084 630.800171,132.827332 
	C629.797424,134.023666 629.034973,134.710083 628.141785,135.085922 
	C597.289490,148.068130 566.422546,161.015656 535.562561,173.979507 
	C503.014221,187.652618 470.517303,201.449738 437.893707,214.940765 
	C429.341309,218.477493 420.402679,221.080276 411.432648,223.843750 
	C410.474701,221.930771 409.694244,220.299438 408.981293,218.639130 
	C403.004700,204.720245 397.040497,190.796021 390.963623,176.529327 
	C388.615936,170.453064 386.377197,164.720871 384.138428,158.988663 
z"/>
<path fill="#2E8DD1" opacity="1.000000" stroke="none" 
	d="
M411.641418,224.111969 
	C420.402679,221.080276 429.341309,218.477493 437.893707,214.940765 
	C470.517303,201.449738 503.014221,187.652618 535.562561,173.979507 
	C566.422546,161.015656 597.289490,148.068130 628.141785,135.085922 
	C629.034973,134.710083 629.797424,134.023666 630.830078,133.199371 
	C638.697327,151.011032 646.355286,169.105408 653.739258,187.700897 
	C651.488831,189.390900 649.622009,190.838409 647.519470,191.729767 
	C616.581848,204.845352 585.621887,217.908524 554.648865,230.940521 
	C518.002136,246.359741 481.360168,261.790955 444.641754,277.037842 
	C441.432831,278.370300 437.671509,278.372375 434.003754,278.663025 
	C428.278748,265.559021 422.716705,252.784363 417.110474,239.618469 
	C415.257965,234.188828 413.449707,229.150391 411.641418,224.111969 
z"/>
<path fill="#3086CC" opacity="1.000000" stroke="none" 
	d="
M434.166748,278.992432 
	C437.671509,278.372375 441.432831,278.370300 444.641754,277.037842 
	C481.360168,261.790955 518.002136,246.359741 554.648865,230.940521 
	C585.621887,217.908524 616.581848,204.845352 647.519470,191.729767 
	C649.622009,190.838409 651.488831,189.390900 653.792603,188.082657 
	C658.083191,197.167007 662.018250,206.382996 666.017761,215.570908 
	C669.901550,224.492676 673.851501,233.385590 677.471191,242.730392 
	C644.784546,256.783722 612.413330,270.431976 580.009949,284.003326 
	C539.313904,301.047791 498.591522,318.029266 457.570587,334.846313 
	C455.669739,330.761719 454.099030,326.860321 452.484314,322.977234 
	C446.386200,308.312408 440.273804,293.653534 434.166748,278.992432 
z"/>
<path fill="#3852A8" opacity="1.000000" stroke="none" 
	d="
M678.945068,858.415161 
	C687.691772,854.598633 696.568420,851.319946 705.293945,847.678894 
	C735.063782,835.256592 764.778076,822.701233 794.518005,810.206909 
	C827.783569,796.231567 861.052551,782.264160 894.327393,768.310913 
	C895.544922,767.800415 896.840942,767.477173 898.467041,767.032288 
	C905.889954,783.710999 912.946167,800.424072 920.027222,817.516357 
	C913.959900,820.897705 907.999756,824.211914 901.754517,826.851624 
	C858.803589,845.005005 815.795044,863.022095 772.800903,881.073242 
	C749.155029,891.000854 725.500977,900.909241 701.508179,910.909973 
	C695.120911,896.911011 689.063293,882.833801 683.040955,868.741577 
	C681.634216,865.449707 680.347534,862.106506 678.945068,858.415161 
z"/>
<path fill="#356DB9" opacity="1.000000" stroke="none" 
	d="
M769.053345,459.586365 
	C760.152649,463.463959 751.112061,466.781830 742.240723,470.503235 
	C687.041870,493.658325 631.888306,516.921326 576.699829,540.101440 
	C567.817871,543.832092 558.836426,547.325928 549.360352,550.627686 
	C545.213196,542.050293 541.515808,533.812378 538.028320,525.486511 
	C535.206909,518.750488 532.638184,511.908722 530.204590,504.867004 
	C532.040466,503.718597 533.556763,502.645569 535.228333,501.940826 
	C567.749756,488.229553 600.287537,474.557037 632.825623,460.885132 
	C662.908508,448.244843 692.972229,435.558472 723.095764,423.015686 
	C731.677063,419.442596 740.437439,416.299744 749.115723,412.959595 
	C753.390259,422.645844 757.716675,432.309692 761.919739,442.026855 
	C764.378723,447.711639 766.640991,453.481567 769.053345,459.586365 
z"/>
<path fill="#3181C7" opacity="1.000000" stroke="none" 
	d="
M457.880554,335.037933 
	C498.591522,318.029266 539.313904,301.047791 580.009949,284.003326 
	C612.413330,270.431976 644.784546,256.783722 677.514282,243.085999 
	C683.898621,257.388367 689.938721,271.774384 695.737976,286.751953 
	C678.480042,294.499237 661.464294,301.658112 644.445618,308.810120 
	C598.597168,328.077637 552.730469,347.301666 506.911652,366.639374 
	C496.814575,370.900818 486.885834,375.561066 476.571075,379.844788 
	C475.697693,378.132965 475.181671,376.593719 474.560364,375.098236 
	C469.011017,361.740387 463.443054,348.390289 457.880554,335.037933 
z"/>
<path fill="#3377C0" opacity="1.000000" stroke="none" 
	d="
M714.833618,330.996002 
	C720.213196,343.714783 725.592834,356.433533 730.917114,369.867371 
	C729.066833,372.177521 727.522949,374.328827 725.433716,375.272003 
	C716.027161,379.518585 706.472046,383.437195 696.959351,387.447571 
	C635.600830,413.314911 574.239319,439.175323 512.573853,464.849335 
	C506.234650,450.104919 500.200470,435.549225 494.533417,420.960907 
	C503.683685,417.393158 512.515259,413.973236 521.242004,410.304230 
	C578.872314,386.074799 636.454651,361.731171 694.129639,337.608795 
	C700.788147,334.823914 707.920776,333.172791 714.833618,330.996002 
z"/>
<path fill="#327CC4" opacity="1.000000" stroke="none" 
	d="
M714.777893,330.644623 
	C707.920776,333.172791 700.788147,334.823914 694.129639,337.608795 
	C636.454651,361.731171 578.872314,386.074799 521.242004,410.304230 
	C512.515259,413.973236 503.683685,417.393158 494.368286,420.633057 
	C488.183899,406.904419 482.531738,393.471039 476.879578,380.037659 
	C486.885834,375.561066 496.814575,370.900818 506.911652,366.639374 
	C552.730469,347.301666 598.597168,328.077637 644.445618,308.810120 
	C661.464294,301.658112 678.480042,294.499237 695.775146,287.121063 
	C702.276123,301.363495 708.499146,315.828369 714.777893,330.644623 
z"/>
<path fill="#3472BC" opacity="1.000000" stroke="none" 
	d="
M512.878845,465.038055 
	C574.239319,439.175323 635.600830,413.314911 696.959351,387.447571 
	C706.472046,383.437195 716.027161,379.518585 725.433716,375.272003 
	C727.522949,374.328827 729.066833,372.177521 730.951538,370.238342 
	C737.032104,383.997009 743.022888,398.099884 749.064697,412.581146 
	C740.437439,416.299744 731.677063,419.442596 723.095764,423.015686 
	C692.972229,435.558472 662.908508,448.244843 632.825623,460.885132 
	C600.287537,474.557037 567.749756,488.229553 535.228333,501.940826 
	C533.556763,502.645569 532.040466,503.718597 529.895874,504.678772 
	C523.852905,491.504272 518.365906,478.271149 512.878845,465.038055 
z"/>
<path fill="#2D93D5" opacity="1.000000" stroke="none" 
	d="
M604.049683,68.588417 
	C603.489624,67.914780 602.890625,66.912170 602.484741,65.610748 
	C603.122131,66.294434 603.566467,67.276939 604.049683,68.588417 
z"/>
<path fill="#3852A8" opacity="1.000000" stroke="none" 
	d="
M898.874878,765.663879 
	C898.646423,765.729675 898.480591,765.546143 898.294678,765.154785 
	C898.546082,765.010254 898.767090,765.166138 898.874878,765.663879 
z"/>
<path fill="#6DA643" opacity="1.000000" stroke="none" 
	d="
M88.953735,406.889648 
	C91.950844,399.319733 94.831146,391.701019 97.966515,384.188751 
	C108.202629,359.663544 118.531731,335.177094 129.403702,310.344421 
	C132.243668,310.454468 134.661636,310.522308 136.742065,311.394897 
	C157.776505,320.217468 178.761932,329.157043 199.748993,338.092224 
	C232.378815,351.984283 264.975220,365.955200 297.633423,379.780090 
	C314.647522,386.982483 331.763611,393.944031 348.871002,401.385040 
	C343.205933,415.343170 337.529388,428.941559 331.794708,442.515411 
	C323.834045,461.358063 315.829712,480.182281 307.434845,499.010468 
	C304.612122,498.497223 302.044983,498.355408 299.809143,497.420959 
	C280.470032,489.338715 261.180054,481.138458 241.895401,472.926422 
	C199.500122,454.873138 157.099670,436.831696 114.741989,418.690491 
	C106.054688,414.969879 97.545197,410.834076 88.953735,406.889648 
z"/>
<path fill="#76B044" opacity="1.000000" stroke="none" 
	d="
M88.648865,407.082153 
	C97.545197,410.834076 106.054688,414.969879 114.741989,418.690491 
	C157.099670,436.831696 199.500122,454.873138 241.895401,472.926422 
	C261.180054,481.138458 280.470032,489.338715 299.809143,497.420959 
	C302.044983,498.355408 304.612122,498.497223 307.369812,499.361084 
	C306.488861,502.179230 305.127594,504.585388 304.059448,507.115326 
	C292.393951,534.745972 280.774231,562.395996 268.755554,590.004333 
	C266.949829,589.515686 265.483429,589.174500 264.118469,588.594543 
	C241.171188,578.843201 218.236481,569.062134 195.299057,559.287537 
	C155.235489,542.214722 115.183266,525.115295 75.099098,508.091064 
	C66.859795,504.591736 58.501167,501.373352 50.197544,498.025482 
	C62.251869,469.094574 74.302330,440.162079 86.372604,411.237823 
	C86.939590,409.879181 87.682831,408.594025 88.648865,407.082153 
z"/>
<path fill="#7DB745" opacity="1.000000" stroke="none" 
	d="
M50.110355,498.390686 
	C58.501167,501.373352 66.859795,504.591736 75.099098,508.091064 
	C115.183266,525.115295 155.235489,542.214722 195.299057,559.287537 
	C218.236481,569.062134 241.171188,578.843201 264.118469,588.594543 
	C265.483429,589.174500 266.949829,589.515686 268.682434,590.372559 
	C260.037476,611.863464 251.079147,632.949829 242.120804,654.036255 
	C239.081970,653.364258 235.851715,653.144836 233.032959,651.952576 
	C188.775345,633.234253 144.574173,614.382446 100.352531,595.579102 
	C78.164749,586.144714 55.928356,576.823181 33.802662,567.245667 
	C30.538465,565.832703 27.766335,563.283142 24.466600,561.133179 
	C27.868933,551.812378 31.485271,542.582092 35.295059,533.432373 
	C40.122219,521.839294 45.106602,510.311737 50.110355,498.390686 
z"/>
<path fill="#5E9941" opacity="1.000000" stroke="none" 
	d="
M348.833618,401.014374 
	C331.763611,393.944031 314.647522,386.982483 297.633423,379.780090 
	C264.975220,365.955200 232.378815,351.984283 199.748993,338.092224 
	C178.761932,329.157043 157.776505,320.217468 136.742065,311.394897 
	C134.661636,310.522308 132.243668,310.454468 129.574219,310.016663 
	C135.919571,293.729279 142.672470,277.438141 149.426987,261.147675 
	C151.053329,257.225281 152.685135,253.305130 154.987091,249.206665 
	C157.079529,249.486938 158.544006,249.838791 159.912491,250.417633 
	C187.196747,261.958527 214.481293,273.498901 241.742462,285.094177 
	C276.661255,299.946533 311.547546,314.875458 346.474548,329.708435 
	C355.641235,333.601349 364.906738,337.261597 374.068787,341.407959 
	C371.988617,346.766998 370.045105,351.780426 367.929688,356.720276 
	C361.600403,371.500397 355.203888,386.251770 348.833618,401.014374 
z"/>
<path fill="#518E3E" opacity="1.000000" stroke="none" 
	d="
M374.126831,341.028687 
	C364.906738,337.261597 355.641235,333.601349 346.474548,329.708435 
	C311.547546,314.875458 276.661255,299.946533 241.742462,285.094177 
	C214.481293,273.498901 187.196747,261.958527 159.912491,250.417633 
	C158.544006,249.838791 157.079529,249.486938 155.274918,248.991043 
	C162.204056,231.521149 169.518036,214.089584 177.349518,196.418365 
	C189.072739,200.868820 200.301865,205.503906 211.479919,210.259109 
	C248.854675,226.158508 286.214417,242.093216 323.573456,258.029541 
	C347.764679,268.348846 371.944641,278.694489 396.070374,289.404419 
	C393.992737,294.773590 392.068085,299.807007 389.937531,304.751770 
	C384.717865,316.865845 379.403259,328.939026 374.126831,341.028687 
z"/>
<path fill="#45843C" opacity="1.000000" stroke="none" 
	d="
M396.129700,289.028320 
	C371.944641,278.694489 347.764679,268.348846 323.573456,258.029541 
	C286.214417,242.093216 248.854675,226.158508 211.479919,210.259109 
	C200.301865,205.503906 189.072739,200.868820 177.516830,196.099457 
	C177.136307,195.841339 177.105972,195.662476 177.264435,195.046661 
	C177.639755,194.369751 177.810471,194.119003 177.965378,193.857483 
	C183.119247,181.287918 188.267365,168.715988 193.432281,156.150955 
	C194.366653,153.877869 195.369965,151.633118 196.916077,149.345322 
	C199.147705,150.415421 200.682114,151.801468 202.480255,152.572205 
	C225.586182,162.475800 248.734482,172.280380 271.862640,182.132187 
	C304.487732,196.029327 337.086548,209.988327 369.733643,223.833572 
	C385.055389,230.331345 400.463623,236.625168 415.743591,243.360260 
	C413.436829,248.961731 411.255371,254.230011 408.993622,259.463562 
	C404.730072,269.329041 400.420258,279.174530 396.129700,289.028320 
z"/>
<path fill="#3B7B3A" opacity="1.000000" stroke="none" 
	d="
M415.832642,243.011414 
	C400.463623,236.625168 385.055389,230.331345 369.733643,223.833572 
	C337.086548,209.988327 304.487732,196.029327 271.862640,182.132187 
	C248.734482,172.280380 225.586182,162.475800 202.480255,152.572205 
	C200.682114,151.801468 199.147705,150.415421 197.196960,149.128876 
	C203.054901,134.087982 209.206589,119.233566 215.934906,104.345863 
	C217.372055,104.813423 218.190353,105.413231 219.099152,105.800995 
	C274.713013,129.530289 330.328186,153.256607 385.988922,176.875519 
	C387.424652,177.484756 389.366669,176.900864 391.072571,176.873398 
	C397.040497,190.796021 403.004700,204.720245 408.981293,218.639130 
	C409.694244,220.299438 410.474701,221.930771 411.432648,223.843750 
	C413.449707,229.150391 415.257965,234.188828 417.038208,239.943939 
	C416.617645,241.444229 416.225128,242.227814 415.832642,243.011414 
z"/>
<path fill="#2F7138" opacity="1.000000" stroke="none" 
	d="
M390.963623,176.529327 
	C389.366669,176.900864 387.424652,177.484756 385.988922,176.875519 
	C330.328186,153.256607 274.713013,129.530289 219.099152,105.800995 
	C218.190353,105.413231 217.372055,104.813423 216.207886,104.126770 
	C218.768341,96.629227 221.558609,89.287476 224.516418,82.013847 
	C227.726151,74.120689 231.091827,66.290939 235.017365,58.276718 
	C236.910492,58.528183 238.216721,58.840202 239.435013,59.358807 
	C271.685516,73.087250 303.900299,86.899994 336.187256,100.541946 
	C345.032867,104.279411 354.090149,107.515846 363.050293,110.982193 
	C368.962402,124.514854 374.875122,138.047272 380.786011,151.580460 
	C381.776245,153.847641 382.758667,156.118225 383.941559,158.687958 
	C386.377197,164.720871 388.615936,170.453064 390.963623,176.529327 
z"/>
<path fill="#246837" opacity="1.000000" stroke="none" 
	d="
M363.010620,110.612595 
	C354.090149,107.515846 345.032867,104.279411 336.187256,100.541946 
	C303.900299,86.899994 271.685516,73.087250 239.435013,59.358807 
	C238.216721,58.840202 236.910492,58.528183 235.277435,58.035908 
	C239.717957,46.411564 244.526291,34.871212 249.932739,23.013067 
	C250.682648,22.099476 250.834442,21.503677 250.986237,20.907879 
	C250.986237,20.907877 251.001190,21.003912 251.306931,20.954094 
	C252.065033,19.906008 252.517395,18.907740 252.969757,17.909473 
	C252.969757,17.909475 252.985336,17.993578 253.381134,17.968729 
	C254.188217,16.780352 254.599503,15.616824 255.010788,14.453297 
	C255.010788,14.453297 255.005386,14.157460 255.081970,14.179530 
	C256.561188,13.761532 258.241913,13.676658 259.325134,12.828581 
	C278.223755,-1.967618 314.877228,-0.973815 327.805145,27.760952 
	C336.122284,46.247391 343.970093,64.944992 352.027069,83.548462 
	C352.753510,85.225822 353.471222,86.906960 354.396240,88.857491 
	C357.390015,96.166763 360.180481,103.204872 363.010620,110.612595 
z"/>
<path fill="#29A3E1" opacity="1.000000" stroke="none" 
	d="
M254.766464,14.716991 
	C254.599503,15.616824 254.188217,16.780352 253.339050,17.976364 
	C253.441498,16.999460 253.981812,15.990074 254.766464,14.716991 
z"/>
<path fill="#29A3E1" opacity="1.000000" stroke="none" 
	d="
M252.664124,18.044518 
	C252.517395,18.907740 252.065033,19.906008 251.258911,20.961609 
	C251.389603,20.072481 251.874039,19.126020 252.664124,18.044518 
z"/>
<path fill="#29A3E1" opacity="1.000000" stroke="none" 
	d="
M250.696411,21.037966 
	C250.834442,21.503677 250.682648,22.099476 250.238937,22.836712 
	C250.100204,22.374784 250.253387,21.771420 250.696411,21.037966 
z"/>
<path fill="#518E3E" opacity="1.000000" stroke="none" 
	d="
M177.743134,193.968491 
	C177.810471,194.119003 177.639755,194.369751 177.298737,194.776703 
	C177.078217,194.572098 177.203781,194.284042 177.743134,193.968491 
z"/>
<path fill="#51BBAB" opacity="1.000000" stroke="none" 
	d="
M603.885498,680.961487 
	C603.897278,681.140991 603.908997,681.320435 603.900513,681.768677 
	C586.053894,693.058533 568.233337,704.089111 550.399658,715.098511 
	C525.590637,730.413879 500.752075,745.681396 475.962921,761.028809 
	C451.732025,776.030457 427.562378,791.131104 403.337494,806.142578 
	C383.271393,818.577026 363.163940,830.944702 342.558502,843.212891 
	C341.409790,841.198608 340.574585,839.354858 340.178223,837.421265 
	C337.737396,825.514099 335.395508,813.586609 333.020996,801.665833 
	C325.020020,761.498047 317.019135,721.330322 309.482391,681.103333 
	C407.926239,681.016602 505.905853,680.989075 603.885498,680.961487 
z"/>
<path fill="#45AA9C" opacity="1.000000" stroke="none" 
	d="
M309.018188,681.162537 
	C317.019135,721.330322 325.020020,761.498047 333.020996,801.665833 
	C335.395508,813.586609 337.737396,825.514099 340.178223,837.421265 
	C340.574585,839.354858 341.409790,841.198608 342.289246,843.448486 
	C322.990051,855.727234 303.444824,867.642883 283.892212,879.546570 
	C283.340057,879.882751 282.709290,880.089783 281.586090,880.203308 
	C280.390533,877.654907 279.565735,875.291870 279.080841,872.861023 
	C268.787537,821.255920 258.468292,769.655823 248.316895,718.022705 
	C245.913147,705.796570 244.097900,693.454773 242.476288,681.104675 
	C264.966492,681.082947 286.992340,681.122742 309.018188,681.162537 
z"/>
<path fill="#3F9F94" opacity="1.000000" stroke="none" 
	d="
M242.011932,681.166138 
	C244.097900,693.454773 245.913147,705.796570 248.316895,718.022705 
	C258.468292,769.655823 268.787537,821.255920 279.080841,872.861023 
	C279.565735,875.291870 280.390533,877.654907 281.299500,880.426025 
	C266.269653,888.097595 250.997284,895.392761 235.365875,902.332764 
	C234.838516,899.991821 234.859070,897.968689 234.474319,896.025818 
	C224.802643,847.183716 215.072769,798.353149 205.388443,749.513550 
	C200.887192,726.812927 196.459854,704.097595 191.998993,681.388977 
	C204.694839,681.252808 217.390686,681.116638 231.008911,680.970825 
	C235.291489,681.029480 238.651718,681.097839 242.011932,681.166138 
z"/>
<path fill="#39938B" opacity="1.000000" stroke="none" 
	d="
M191.534851,681.316406 
	C196.459854,704.097595 200.887192,726.812927 205.388443,749.513550 
	C215.072769,798.353149 224.802643,847.183716 234.474319,896.025818 
	C234.859070,897.968689 234.838516,899.991821 235.009521,902.405518 
	C221.970154,907.669434 208.992142,912.735168 194.528473,914.027954 
	C193.164062,911.409790 191.882690,908.834106 191.338165,906.111023 
	C176.579742,832.306152 161.895859,758.486389 147.212631,684.666504 
	C147.051315,683.855591 147.064178,683.010010 146.985138,681.790344 
	C161.673279,681.347961 176.371979,681.295837 191.534851,681.316406 
z"/>
<path fill="#000000" opacity="1.000000" stroke="none" 
	d="
M242.476288,681.104675 
	C238.651718,681.097839 235.291489,681.029480 231.474747,680.903320 
	C234.677017,672.155701 238.335815,663.465942 242.057709,654.406250 
	C251.079147,632.949829 260.037476,611.863464 269.068939,590.408936 
	C280.774231,562.395996 292.393951,534.745972 304.059448,507.115326 
	C305.127594,504.585388 306.488861,502.179230 307.779053,499.364990 
	C315.829712,480.182281 323.834045,461.358063 331.794708,442.515411 
	C337.529388,428.941559 343.205933,415.343170 348.870972,401.385040 
	C355.203888,386.251770 361.600403,371.500397 367.929688,356.720276 
	C370.045105,351.780426 371.988617,346.766998 374.068787,341.407959 
	C379.403259,328.939026 384.717865,316.865845 389.937531,304.751770 
	C392.068085,299.807007 393.992737,294.773590 396.070374,289.404419 
	C400.420258,279.174530 404.730072,269.329041 408.993622,259.463562 
	C411.255371,254.230011 413.436829,248.961731 415.743591,243.360260 
	C416.225128,242.227814 416.617645,241.444229 417.082397,240.335175 
	C422.716705,252.784363 428.278748,265.559021 434.003754,278.663025 
	C440.273804,293.653534 446.386200,308.312408 452.484314,322.977234 
	C454.099030,326.860321 455.669739,330.761719 457.570618,334.846313 
	C463.443054,348.390289 469.011017,361.740387 474.560364,375.098236 
	C475.181671,376.593719 475.697693,378.132965 476.571075,379.844788 
	C482.531738,393.471039 488.183899,406.904419 494.001160,420.665649 
	C500.200470,435.549225 506.234650,450.104919 512.573853,464.849335 
	C518.365906,478.271149 523.852905,491.504272 529.648682,504.925629 
	C532.638184,511.908722 535.206909,518.750488 538.028320,525.486511 
	C541.515808,533.812378 545.213196,542.050293 548.993286,550.660767 
	C553.300598,561.032471 557.423523,571.074219 561.571167,581.105774 
	C566.476379,592.969543 571.403015,604.824463 576.630005,616.888733 
	C585.865173,638.154297 594.790710,659.214417 603.800903,680.618042 
	C505.905853,680.989075 407.926239,681.016602 309.482391,681.103333 
	C286.992340,681.122742 264.966492,681.082947 242.476288,681.104675 
z"/>
</svg>